<svg width="16" height="16" viewBox="0 0 16 16" fill="none" xmlns="http://www.w3.org/2000/svg">
<path d="M13.4346 0.922852C13.6831 0.739583 14.0109 0.698281 14.3008 0.817383C14.635 0.954791 14.8486 1.28121 14.8486 1.63867V5.46289C14.8486 5.95411 14.4531 6.35037 13.9619 6.35059H10.1367C9.77926 6.35059 9.45284 6.13697 9.31543 5.80273C9.1793 5.47155 9.25254 5.09038 9.50781 4.83496L10.541 3.80176C8.65244 2.50306 6.04676 2.69152 4.36816 4.37012C2.47377 6.2646 2.47386 9.33397 4.36816 11.2285C6.26269 13.123 9.332 13.123 11.2266 11.2285C11.4343 11.0208 11.619 10.8011 11.7803 10.5693C12.128 10.0701 12.815 9.95057 13.3125 10.2969C13.8118 10.6447 13.9315 11.3325 13.585 11.8301C13.3507 12.1663 13.083 12.4854 12.7832 12.7852C10.0294 15.5389 5.56572 15.5392 2.81445 12.7852C0.0634896 10.0314 0.0605455 5.57041 2.81445 2.81641C5.35625 0.274606 9.34999 0.0823856 12.1162 2.22852L13.333 1.00977L13.4346 0.922852Z" fill="white" stroke="white" stroke-width="0.5"/>
</svg>
