<svg width="12" height="12" viewBox="0 0 12 12" fill="none" xmlns="http://www.w3.org/2000/svg">
<path fill-rule="evenodd" clip-rule="evenodd" d="M5.64746 7.97232L9.30275 11.7148C9.66944 12.0931 9.90802 12.097 10.2814 11.7148L11.0148 10.9638C11.3741 10.596 11.3984 10.3546 11.0148 9.96179L7.14494 6.00015L11.0152 2.03852C11.3776 1.66618 11.3847 1.41489 11.0152 1.0362L10.2818 0.285516C9.90131 -0.104118 9.66626 -0.086119 9.3031 0.285516L5.64746 4.02798L1.99216 0.285869C1.629 -0.0857661 1.39395 -0.103766 1.01349 0.285869L0.280102 1.03655C-0.089768 1.41524 -0.0830623 1.66653 0.280102 2.03887L4.14998 6.00015L0.280102 9.96179C-0.103532 10.3546 -0.0830623 10.596 0.280102 10.9638L1.01314 11.7148C1.38336 12.097 1.62194 12.0931 1.99181 11.7148L5.64746 7.97232Z" fill="white"/>
</svg>
