<svg width="15" height="15" viewBox="0 0 15 15" fill="none" xmlns="http://www.w3.org/2000/svg">
<path d="M11.4879 4.83696H3.02322C2.01955 4.83696 1.20935 5.64715 1.20935 6.65083V10.2786H3.62784V12.6971H10.8833V10.2786H13.3018V6.65083C13.3018 5.64715 12.4916 4.83696 11.4879 4.83696ZM9.67407 11.4878H4.83709V8.4647H9.67407V11.4878ZM11.4879 7.25545C11.1554 7.25545 10.8833 6.98337 10.8833 6.65083C10.8833 6.31828 11.1554 6.0462 11.4879 6.0462C11.8205 6.0462 12.0926 6.31828 12.0926 6.65083C12.0926 6.98337 11.8205 7.25545 11.4879 7.25545ZM10.8833 1.81384H3.62784V4.23233H10.8833V1.81384Z" fill="#FFFFFF"/>
</svg>
